<svg xmlns="http://www.w3.org/2000/svg" xmlns:xlink="http://www.w3.org/1999/xlink" width="128" height="128" viewBox="0 0 128 128"><defs><linearGradient id="a" gradientUnits="userSpaceOnUse"><stop offset="0" stop-color="#d5d3cf"/><stop offset=".036" stop-color="#e4e1de"/><stop offset=".071" stop-color="#d5d3cf"/><stop offset=".929" stop-color="#d5d3cf"/><stop offset=".964" stop-color="#e4e1de"/><stop offset="1" stop-color="#d5d3cf"/></linearGradient><linearGradient id="b" x1="7.788" x2="119.788" y1="104" y2="104" xlink:href="#a"/><linearGradient id="c" x1="100" x2="52" y1="51" y2="51" gradientUnits="userSpaceOnUse"><stop offset="0" stop-color="#26a269"/><stop offset="1" stop-color="#26a269" stop-opacity="0"/></linearGradient><filter id="d" width="100%" height="100%" x="0%" y="0%"><feColorMatrix in="SourceGraphic" type="matrix" values="0 0 0 0 1 0 0 0 0 1 0 0 0 0 1 0 0 0 1 0"/></filter><mask id="e"><g filter="url(#d)"><rect width="128" height="128" fill-opacity=".623"/></g></mask><linearGradient id="f" x1="112.875" x2="53.875" y1="102.875" y2="102.875" xlink:href="#a"/><linearGradient id="g" x1="17" x2="20.5" y1="92.75" y2="92.75" gradientUnits="userSpaceOnUse"><stop offset="0" stop-color="#e54b57"/><stop offset="1" stop-color="#a51d2d"/></linearGradient><mask id="h"><g filter="url(#d)"><rect width="128" height="128" fill-opacity=".623"/></g></mask><clipPath id="i"><rect width="128" height="128"/></clipPath><g id="j" clip-path="url(#i)"><path fill="#26a269" d="m 16 46 h 96 v 2 h -96 z m 0 0"/></g><clipPath id="k"><rect width="128" height="128"/></clipPath><clipPath id="l"><rect width="128" height="128"/></clipPath><mask id="m"><g clip-path="url(#l)" filter="url(#d)"><g clip-path="url(#k)"><path fill="#f6f5f4" d="m 15.789062 28 h 96 c 4.417969 0 8 3.582031 8 8 v 70 c 0 4.417969 -3.582031 8 -8 8 h -96 c -4.417968 0 -8 -3.582031 -8 -8 v -70 c 0 -4.417969 3.582032 -8 8 -8 z m 0 0"/><path fill="url(#b)" d="m 7.789062 104 v 4 c 0 4.433594 3.566407 8 8 8 h 96 c 4.429688 0 8 -3.566406 8 -8 v -4 c 0 4.433594 -3.570312 8 -8 8 h -96 c -4.433593 0 -8 -3.566406 -8 -8 z m 0 0"/><path fill="#241f31" d="m 17.945312 35 h 92.109376 c 1.074218 0 1.945312 0.871094 1.945312 1.945312 v 20.109376 c 0 1.074218 -0.871094 1.945312 -1.945312 1.945312 h -92.109376 c -1.074218 0 -1.945312 -0.871094 -1.945312 -1.945312 v -20.109376 c 0 -1.074218 0.871094 -1.945312 1.945312 -1.945312 z m 0 0"/><path fill="url(#c)" d="m 29 35 h 72 v 24 h -72 z m 0 0"/><use mask="url(#h)" xlink:href="#j"/><path fill="none" stroke="#57e389" stroke-linecap="round" stroke-width="2" d="m 100.914062 218.996094 h -83.914062" transform="matrix(1 0 0 1 0 -172)"/><path fill="none" stroke="#33d17a" stroke-linecap="round" stroke-width="4" d="m 41 216.011719 v 6.414062 m 8 -5.558593 v 4.699218 m 8 -5.089844 v 5.480469 m 8 -7.050781 v 8.617188 m 8 -10.964844 v 13.316406 m 8 -10.183594 v 7.050782 m 8 -8.226563 v 9.398437" transform="matrix(1 0 0 1 0 -172)"/><path fill="none" stroke="#f9f06b" stroke-linecap="round" stroke-width="4" d="m 41 218.691406 v 1.046875 m 8 -1.304687 v 1.566406 m 8 -1.167969 v 1.476563 m 8 -2.660156 v 3.132812 m 8 -4.78125 v 6 m 8 -4.351562 v 3.132812 m 8 -2.738281 v 2.347656" transform="matrix(1 0 0 1 0 -172)"/><path fill="url(#f)" d="m 64 64 v 40 h 44.992188 c 0.800781 0 1.566406 -0.316406 2.128906 -0.878906 s 0.878906 -1.328125 0.878906 -2.128906 v -33.984376 c 0 -0.800781 -0.316406 -1.566406 -0.878906 -2.128906 s -1.328125 -0.878906 -2.128906 -0.878906 z m 0 0"/><path fill="#f6f6f6" d="m 64 59 v 40 h 44.992188 c 0.800781 0 1.566406 -0.316406 2.128906 -0.878906 s 0.878906 -1.328125 0.878906 -2.128906 v -33.984376 c 0 -0.800781 -0.316406 -1.566406 -0.878906 -2.128906 s -1.328125 -0.878906 -2.128906 -0.878906 z m 0 0"/><path fill="url(#g)" d="m 64 64 v 40 h -44.992188 c -0.800781 0 -1.566406 -0.316406 -2.128906 -0.878906 s -0.878906 -1.328125 -0.878906 -2.128906 v -33.984376 c 0 -0.800781 0.316406 -1.566406 0.878906 -2.128906 s 1.328125 -0.878906 2.128906 -0.878906 z m 0 0"/><path fill="#e01b24" d="m 64 62 v 40 h -44.992188 c -0.800781 0 -1.566406 -0.316406 -2.128906 -0.878906 s -0.878906 -1.328125 -0.878906 -2.128906 v -33.984376 c 0 -0.800781 0.316406 -1.566406 0.878906 -2.128906 s 1.328125 -0.878906 2.128906 -0.878906 z m 0 0"/><path fill="#fff" d="m 48 83 c 0 4.417969 -3.582031 8 -8 8 s -8 -3.582031 -8 -8 s 3.582031 -8 8 -8 s 8 3.582031 8 8 z m 0 0"/><path fill="#241f31" d="m 72 71 v 16 l 16 -8 z m 16 0 h 5 v 16 h -5 z m 8 0 h 5 v 16 h -5 z m 0 0"/><path fill="#8ff0a4" d="m 100 35 h 2 v 24 h -2 z m 0 0"/><path fill="#241f31" fill-opacity=".374" d="m 17.945312 35 c -0.515624 0 -1.011718 0.203125 -1.378906 0.570312 c -0.363281 0.363282 -0.566406 0.859376 -0.566406 1.375 v 2 c 0 -1.078124 0.867188 -1.945312 1.945312 -1.945312 h 92.109376 c 1.078124 0 1.945312 0.867188 1.945312 1.945312 v -2 c 0 -0.515624 -0.203125 -1.011718 -0.570312 -1.375 c -0.363282 -0.367187 -0.859376 -0.570312 -1.375 -0.570312 z m 0 0"/></g></g></mask><mask id="n"><g filter="url(#d)"><rect width="128" height="128" fill-opacity=".8"/></g></mask><linearGradient id="o" x1="300" x2="428" y1="235" y2="235" gradientTransform="matrix(0 0.37 -0.98462 0 295.38501 -30.360001)" gradientUnits="userSpaceOnUse"><stop offset="0" stop-color="#f9f06b"/><stop offset="1" stop-color="#f5c211"/></linearGradient><clipPath id="p"><rect width="128" height="128"/></clipPath><clipPath id="q"><rect width="128" height="128"/></clipPath></defs><path fill="#f6f5f4" d="m 15.789062 28 h 96 c 4.417969 0 8 3.582031 8 8 v 70 c 0 4.417969 -3.582031 8 -8 8 h -96 c -4.417968 0 -8 -3.582031 -8 -8 v -70 c 0 -4.417969 3.582032 -8 8 -8 z m 0 0"/><path fill="url(#b)" d="m 7.789062 104 v 4 c 0 4.433594 3.566407 8 8 8 h 96 c 4.429688 0 8 -3.566406 8 -8 v -4 c 0 4.433594 -3.570312 8 -8 8 h -96 c -4.433593 0 -8 -3.566406 -8 -8 z m 0 0"/><path fill="#241f31" d="m 17.945312 35 h 92.109376 c 1.074218 0 1.945312 0.871094 1.945312 1.945312 v 20.109376 c 0 1.074218 -0.871094 1.945312 -1.945312 1.945312 h -92.109376 c -1.074218 0 -1.945312 -0.871094 -1.945312 -1.945312 v -20.109376 c 0 -1.074218 0.871094 -1.945312 1.945312 -1.945312 z m 0 0"/><path fill="url(#c)" d="m 29 35 h 72 v 24 h -72 z m 0 0"/><use mask="url(#e)" xlink:href="#j"/><g fill="none" stroke-linecap="round"><path stroke="#57e389" stroke-width="2" d="m 100.914062 46.996094 h -83.914062"/><path stroke="#33d17a" stroke-width="4" d="m 41 44.011719 v 6.414062 m 8 -5.558593 v 4.699218 m 8 -5.089844 v 5.480469 m 8 -7.050781 v 8.617188 m 8 -10.964844 v 13.316406 m 8 -10.183594 v 7.050782 m 8 -8.226563 v 9.398437"/><path stroke="#f9f06b" stroke-width="4" d="m 41 46.691406 v 1.046875 m 8 -1.304687 v 1.566406 m 8 -1.167969 v 1.476563 m 8 -2.660156 v 3.132812 m 8 -4.78125 v 6 m 8 -4.351562 v 3.132812 m 8 -2.738281 v 2.347656"/></g><path fill="url(#f)" d="m 64 64 v 40 h 44.992188 c 0.800781 0 1.566406 -0.316406 2.128906 -0.878906 s 0.878906 -1.328125 0.878906 -2.128906 v -33.984376 c 0 -0.800781 -0.316406 -1.566406 -0.878906 -2.128906 s -1.328125 -0.878906 -2.128906 -0.878906 z m 0 0"/><path fill="#f6f6f6" d="m 64 59 v 40 h 44.992188 c 0.800781 0 1.566406 -0.316406 2.128906 -0.878906 s 0.878906 -1.328125 0.878906 -2.128906 v -33.984376 c 0 -0.800781 -0.316406 -1.566406 -0.878906 -2.128906 s -1.328125 -0.878906 -2.128906 -0.878906 z m 0 0"/><path fill="url(#g)" d="m 64 64 v 40 h -44.992188 c -0.800781 0 -1.566406 -0.316406 -2.128906 -0.878906 s -0.878906 -1.328125 -0.878906 -2.128906 v -33.984376 c 0 -0.800781 0.316406 -1.566406 0.878906 -2.128906 s 1.328125 -0.878906 2.128906 -0.878906 z m 0 0"/><path fill="#e01b24" d="m 64 62 v 40 h -44.992188 c -0.800781 0 -1.566406 -0.316406 -2.128906 -0.878906 s -0.878906 -1.328125 -0.878906 -2.128906 v -33.984376 c 0 -0.800781 0.316406 -1.566406 0.878906 -2.128906 s 1.328125 -0.878906 2.128906 -0.878906 z m 0 0"/><path fill="#fff" d="m 48 83 c 0 4.417969 -3.582031 8 -8 8 s -8 -3.582031 -8 -8 s 3.582031 -8 8 -8 s 8 3.582031 8 8 z m 0 0"/><path fill="#241f31" d="m 72 71 v 16 l 16 -8 z m 16 0 h 5 v 16 h -5 z m 8 0 h 5 v 16 h -5 z m 0 0"/><path fill="#8ff0a4" d="m 100 35 h 2 v 24 h -2 z m 0 0"/><path fill="#241f31" fill-opacity=".374" d="m 17.945312 35 c -0.515624 0 -1.011718 0.203125 -1.378906 0.570312 c -0.363281 0.363282 -0.566406 0.859376 -0.566406 1.375 v 2 c 0 -1.078124 0.867188 -1.945312 1.945312 -1.945312 h 92.109376 c 1.078124 0 1.945312 0.867188 1.945312 1.945312 v -2 c 0 -0.515624 -0.203125 -1.011718 -0.570312 -1.375 c -0.363282 -0.367187 -0.859376 -0.570312 -1.375 -0.570312 z m 0 0"/><g clip-path="url(#q)" mask="url(#m)"><g clip-path="url(#p)" mask="url(#n)"><path fill="url(#o)" d="m 128 80.640625 v 47.359375 h -128 v -47.359375 z m 0 0"/><path d="m 13.308594 80.640625 l 47.355468 47.359375 h 21.214844 l -47.359375 -47.359375 z m 42.421875 0 l 47.363281 47.359375 h 21.214844 l -47.363282 -47.359375 z m 42.429687 0 l 29.839844 29.839844 v -21.210938 l -8.628906 -8.628906 z m -98.160156 7.90625 v 21.214844 l 18.238281 18.238281 h 21.214844 z m 0 0"/></g></g></svg>