<svg xmlns="http://www.w3.org/2000/svg" xmlns:osb="http://www.openswatchbook.org/uri/2009/osb" xmlns:svg="http://www.w3.org/2000/svg" id="svg7384" width="16" height="16" version="1.1"><metadata id="metadata90"/><title id="title9167">Gnome Symbolic Icon Theme</title><defs id="defs7386"><linearGradient id="linearGradient7212" osb:paint="solid"><stop style="stop-color:#000;stop-opacity:1" id="stop7214" offset="0"/></linearGradient></defs><path id="path849" d="m 6.515284,15.000003 h 3.726667 V 13.717336 H 9.1759508 v -4.732 H 8.2832841 l -2.0713334,1.196 0.5633333,1.074667 0.9013334,-0.468 v 2.929333 H 6.515284 Z" style="font-style:normal;font-variant:normal;font-weight:800;font-stretch:normal;font-size:8.66666698px;line-height:1.25;font-family:Cantarell;-inkscape-font-specification:'Cantarell Ultra-Bold';text-align:center;letter-spacing:0;word-spacing:0;text-anchor:middle;fill:#2e3436;fill-opacity:1;stroke:none;stroke-width:.99999976"/><path id="path851" d="m 13.112242,15.08667 c 1.525334,0 2.556667,-1.248001 2.556667,-3.128667 0,-1.837334 -1.014,-3.0593337 -2.513333,-3.0593337 -1.534,0 -2.565334,1.2479997 -2.565334,3.1199997 0,1.837334 1.014,3.068001 2.522,3.068001 z m 0.03467,-1.282667 c -0.615333,0 -1.014,-0.736667 -1.014,-1.837334 0,-1.074666 0.398667,-1.785333 0.988,-1.785333 0.598,0 1.005333,0.736667 1.005333,1.846 0,1.066 -0.398666,1.776667 -0.979333,1.776667 z" style="font-style:normal;font-variant:normal;font-weight:800;font-stretch:normal;font-size:8.66666698px;line-height:1.25;font-family:Cantarell;-inkscape-font-specification:'Cantarell Ultra-Bold';text-align:center;letter-spacing:0;word-spacing:0;text-anchor:middle;fill:#2e3436;fill-opacity:1;stroke:none;stroke-width:.99999976"/><path style="color:#000;font-style:normal;font-variant:normal;font-weight:400;font-stretch:normal;font-size:medium;line-height:normal;font-family:'Bitstream Vera Sans';-inkscape-font-specification:'Bitstream Vera Sans';text-indent:0;text-align:start;text-decoration:none;text-decoration-line:none;letter-spacing:normal;word-spacing:normal;text-transform:none;writing-mode:lr-tb;direction:ltr;text-anchor:start;display:inline;overflow:visible;visibility:visible;fill:#2e3436;fill-opacity:1;fill-rule:nonzero;stroke:none;stroke-width:2;marker:none;enable-background:accumulate" id="path946" d="m 7.74999,1 c 0.13304,0.006 0.26338,0.0444 0.375,0.11719 l 3.749999,2.2499999 c 0.2118,0.13478 0.32813,0.3838 0.32813,0.63281 0,0.24901 -0.11633,0.49803 -0.32813,0.63281 L 8.12499,6.8828096 c -0.11162,0.0728 -0.24196,0.11119 -0.375,0.11719 H 7.6328 7 V 1 h 0.6328 z"/><path style="color:#000;font-style:normal;font-variant:normal;font-weight:400;font-stretch:normal;font-size:medium;line-height:normal;font-family:sans-serif;font-variant-ligatures:normal;font-variant-position:normal;font-variant-caps:normal;font-variant-numeric:normal;font-variant-alternates:normal;font-feature-settings:normal;text-indent:0;text-align:start;text-decoration:none;text-decoration-line:none;text-decoration-style:solid;text-decoration-color:#000;letter-spacing:normal;word-spacing:normal;text-transform:none;writing-mode:lr-tb;direction:ltr;text-orientation:mixed;dominant-baseline:auto;baseline-shift:baseline;text-anchor:start;white-space:normal;shape-padding:0;clip-rule:nonzero;display:inline;overflow:visible;visibility:visible;opacity:1;isolation:auto;mix-blend-mode:normal;color-interpolation:sRGB;color-interpolation-filters:linearRGB;solid-color:#000;solid-opacity:1;vector-effect:none;fill:#2e3436;fill-opacity:1;fill-rule:nonzero;stroke:none;stroke-width:1.99999988;stroke-linecap:round;stroke-linejoin:round;stroke-miterlimit:4;stroke-dasharray:none;stroke-dashoffset:0;stroke-opacity:1;color-rendering:auto;image-rendering:auto;shape-rendering:auto;text-rendering:auto;enable-background:accumulate" id="path948" d="m 7,3 c -2.615338,-10e-8 -4.9362036,1.702994 -5.7226562,4.1972656 -0.78645273,2.4942717 0.1388853,5.2206254 2.28125,6.7207034 A 1.0000999,1.0000999 0 1 0 4.7050781,12.279297 C 3.2710452,11.275191 2.6571722,9.4683988 3.1835938,7.7988281 3.7100153,6.1292575 5.2493627,5 7,5 A 1.0000999,1.0000999 0 1 0 7,3 Z"/></svg>